<?xml version="1.0" encoding="utf-8"?>
<!-- Generator: Adobe Illustrator 24.0.2, SVG Export Plug-In . SVG Version: 6.00 Build 0)  -->
<svg version="1.1" id="Layer_1" xmlns="http://www.w3.org/2000/svg" xmlns:xlink="http://www.w3.org/1999/xlink" x="0px" y="0px"
	 viewBox="0 0 50 50" style="enable-background:new 0 0 50 50;" xml:space="preserve">
<style type="text/css">
	.st0{fill:none;stroke:#FFFFFF;stroke-width:2;stroke-miterlimit:10;}
	.st1{fill:#FFFFFF;}
</style>
<circle class="st0" cx="25.5" cy="25.5" r="20"/>
<g>
	<path class="st1" d="M19.93,15.58c0.03,0.91-0.64,1.64-1.7,1.64c-0.94,0-1.61-0.73-1.61-1.64c0-0.94,0.7-1.67,1.67-1.67
		C19.29,13.91,19.93,14.64,19.93,15.58z M16.96,34.41v-14.7h2.67v14.7H16.96z"/>
	<path class="st1" d="M24.06,23.69c0-1.52-0.03-2.76-0.12-3.98h2.37l0.15,2.43h0.06c0.73-1.4,2.43-2.76,4.86-2.76
		c2.04,0,5.19,1.21,5.19,6.26v8.78H33.9v-8.47c0-2.37-0.88-4.34-3.4-4.34c-1.76,0-3.13,1.25-3.58,2.73
		c-0.12,0.33-0.18,0.79-0.18,1.24v8.84h-2.67V23.69z"/>
</g>
</svg>
