<?xml version="1.0" encoding="utf-8"?>
<!-- Generator: Adobe Illustrator 24.0.2, SVG Export Plug-In . SVG Version: 6.00 Build 0)  -->
<svg version="1.1" id="Layer_1" xmlns="http://www.w3.org/2000/svg" xmlns:xlink="http://www.w3.org/1999/xlink" x="0px" y="0px"
	 viewBox="0 0 50 50" style="enable-background:new 0 0 50 50;" xml:space="preserve">
<style type="text/css">
	.st0{fill:none;stroke:#FFFFFF;stroke-width:2;stroke-miterlimit:10;}
</style>
<g>
	<path class="st0" d="M44.5,24.5c0-11.05-8.95-20-20-20s-20,8.95-20,20c0,9.89,7.19,18.08,16.62,19.69l0.08-13.95
		c0,0-3.39,0.05-4.18,0.05s-0.65-0.56-0.65-0.56s-0.07-5.09,0-5.63c0.07-0.54,0.7-0.56,0.7-0.56h4.04c0,0-0.33-3.22,0.21-7.22
		s4.91-5.66,5.68-5.79c1.6-0.28,6.17-0.07,6.73,0c0.56,0.07,0.68,0.72,0.68,0.72l-0.3,5.19c0,0-2.9-0.12-4.58,0
		c-1.68,0.12-1.76,1.82-1.76,1.82v5.35c0,0,5.5-0.12,6.06-0.12c0.56,0,0.58,0.86,0.58,0.86s-0.42,5.02-0.54,5.49
		c-0.12,0.47-0.72,0.51-0.72,0.51h-5.31V44.2C37.29,42.61,44.5,34.41,44.5,24.5z"/>
	<path class="st0" d="M33.14,30.35c0,0,0.61-0.04,0.72-0.51c0.12-0.47,0.54-5.49,0.54-5.49s-0.02-0.86-0.58-0.86
		c-0.56,0-6.06,0.12-6.06,0.12v-5.35c0,0,0.08-1.71,1.76-1.82c1.68-0.12,4.58,0,4.58,0l0.3-5.19c0,0-0.12-0.65-0.68-0.72
		c-0.56-0.07-5.12-0.28-6.73,0c-0.76,0.14-5.14,1.8-5.68,5.79s-0.21,7.22-0.21,7.22h-4.04c0,0-0.63,0.02-0.7,0.56
		c-0.07,0.54,0,5.63,0,5.63s-0.14,0.56,0.65,0.56s4.18-0.05,4.18-0.05l-0.08,13.95c1.1,0.19,2.23,0.31,3.38,0.31
		c1.14,0,2.24-0.12,3.33-0.3V30.35H33.14z"/>
</g>
</svg>
